<svg xmlns="http://www.w3.org/2000/svg" xmlns:xlink="http://www.w3.org/1999/xlink" width="133" height="132" viewBox="0 0 133 132">
  <defs>
    <clipPath id="clip-path">
      <rect id="Rectangle_202" data-name="Rectangle 202" width="133" height="132" transform="translate(0 -0.383)" fill="none"/>
    </clipPath>
  </defs>
  <g id="_1" data-name="1" transform="translate(0 0.383)" clip-path="url(#clip-path)">
    <path id="Path_45" data-name="Path 45" d="M93.615,153.562l56.231,51.044-10.368,11.416L83.25,164.978Zm-.253-5.192-15.3,16.861,61.678,55.976,15.305-16.863Z" transform="translate(-57.985 -109.513)" fill="#973490"/>
    <rect id="Rectangle_193" data-name="Rectangle 193" width="48.981" height="4.413" transform="matrix(0.672, -0.74, 0.74, 0.672, 7.264, 61.794)" fill="#973490"/>
    <rect id="Rectangle_194" data-name="Rectangle 194" width="10.001" height="4.413" transform="matrix(0.672, -0.74, 0.74, 0.672, 37.424, 54.223)" fill="#973490"/>
    <rect id="Rectangle_195" data-name="Rectangle 195" width="10.001" height="4.413" transform="matrix(0.672, -0.74, 0.74, 0.672, 47.183, 63.081)" fill="#973490"/>
    <rect id="Rectangle_196" data-name="Rectangle 196" width="10.001" height="4.413" transform="matrix(0.672, -0.74, 0.74, 0.672, 56.978, 71.973)" fill="#973490"/>
    <rect id="Rectangle_197" data-name="Rectangle 197" width="9.999" height="4.413" transform="matrix(0.672, -0.74, 0.74, 0.672, 67.148, 81.204)" fill="#973490"/>
    <rect id="Rectangle_198" data-name="Rectangle 198" width="9.999" height="4.413" transform="matrix(0.672, -0.74, 0.74, 0.672, 77.983, 91.038)" fill="#973490"/>
    <rect id="Rectangle_199" data-name="Rectangle 199" width="27.878" height="4.413" transform="matrix(0.672, -0.74, 0.74, 0.672, -0.681, 38.644)" fill="#973490"/>
    <rect id="Rectangle_200" data-name="Rectangle 200" width="11.105" height="17.121" transform="matrix(0.672, -0.74, 0.74, 0.672, 8.013, 35.495)" fill="#973490"/>
    <rect id="Rectangle_201" data-name="Rectangle 201" width="5.692" height="37.669" transform="matrix(0.672, -0.74, 0.74, 0.672, 88.012, 104.443)" fill="#973490"/>
    <path id="Path_46" data-name="Path 46" d="M370.637,22.169h-27.96V13.417h27.96ZM374.3,9.74H339V25.846h35.3Z" transform="translate(-249.553 -7.738)" fill="#973490"/>
    <path id="Path_47" data-name="Path 47" d="M314.67,197.8v18.405l24.637,20.513v6.84h17.509l7.125-8.949V197.8Z" transform="translate(-231.691 -145.801)" fill="#973490"/>
    <path id="Path_48" data-name="Path 48" d="M318.347,92.955l10.99-11.738.994-1.063V74h17.355v6.452l1.079,1.063,11.5,11.5v7.532H318.347Zm8.308-22.635v8.385L314.67,91.5v12.708h49.271V91.5L351.366,78.928V70.32Z" transform="translate(-231.691 -52.213)" fill="#973490"/>
  </g>
</svg>
