<svg xmlns="http://www.w3.org/2000/svg" xmlns:xlink="http://www.w3.org/1999/xlink" width="114" height="114" viewBox="0 0 114 114">
  <defs>
    <clipPath id="clip-path">
      <rect id="Rectangle_211" data-name="Rectangle 211" width="114" height="114" transform="translate(0 -0.383)" fill="none"/>
    </clipPath>
  </defs>
  <g id="_3" data-name="3" transform="translate(0 0.383)" clip-path="url(#clip-path)">
    <path id="Path_52" data-name="Path 52" d="M207.956,41.82l8.694.03L216.4,68.314l-8.7-.032Zm-2.064-1.29-.272,29.026,12.844.046.272-29.026Z" transform="translate(-158.681 -31.992)" fill="#973490"/>
    <path id="Path_53" data-name="Path 53" d="M202.425,33.9,174.8,33.8l.014-1.54,27.625.1Z" transform="translate(-134.976 -25.631)" fill="#973490"/>
    <path id="Path_54" data-name="Path 54" d="M243.419,60.078l-5.639-.021.014-1.537,5.64.021Z" transform="translate(-183.417 -45.829)" fill="#973490"/>
    <path id="Path_55" data-name="Path 55" d="M243.229,79.976l-5.639-.018.014-1.537,5.639.018Z" transform="translate(-183.271 -61.135)" fill="#973490"/>
    <path id="Path_56" data-name="Path 56" d="M243.042,99.948l-5.642-.021.016-1.537,5.639.018Z" transform="translate(-183.125 -76.495)" fill="#973490"/>
    <path id="Path_57" data-name="Path 57" d="M242.849,120.676l-5.639-.018.014-1.537,5.639.018Z" transform="translate(-182.979 -92.44)" fill="#973490"/>
    <path id="Path_58" data-name="Path 58" d="M242.639,142.768,237,142.747l.014-1.537,5.642.021Z" transform="translate(-182.817 -109.431)" fill="#973490"/>
    <path id="Path_59" data-name="Path 59" d="M203.954,0l-.014,1.537,15.723.058.014-1.54Z" transform="translate(-157.389 -0.818)" fill="#973490"/>
    <path id="Path_60" data-name="Path 60" d="M229.935,12.58l-6.265-.023.058-5.967,6.263.023Z" transform="translate(-172.565 -5.887)" fill="#973490"/>
    <path id="Path_61" data-name="Path 61" d="M231.711,179.13l-3.211-.012.125-13.128,3.209.012Z" transform="translate(-176.28 -128.491)" fill="#973490"/>
    <rect id="Rectangle_209" data-name="Rectangle 209" width="15.261" height="6.962" transform="translate(86.849 36.551)" fill="#973490"/>
    <path id="Path_62" data-name="Path 62" d="M387.69,271.424l-3.079,3.869H369.186l-2.8-4.127V255.51h21.3Z" transform="translate(-282.339 -197.346)" fill="#973490"/>
    <path id="Path_63" data-name="Path 63" d="M380.663,193.638v2.786l.462.462,4.972,4.972V205.1H367.976v-3.278l4.751-5.079.429-.462v-2.648Zm1.59-1.588H371.57v3.624l-5.18,5.54v5.5h21.3v-5.506l-5.436-5.436Z" transform="translate(-282.339 -148.535)" fill="#973490"/>
    <path id="Path_64" data-name="Path 64" d="M0,0,90.472,82" transform="translate(9.016 19.708)" fill="none" stroke="#973490" stroke-width="8"/>
    <line id="Line_3" data-name="Line 3" y1="90.656" x2="82.18" transform="translate(12.7 15.47)" fill="none" stroke="#973490" stroke-miterlimit="10" stroke-width="8"/>
    <g id="Group_40" data-name="Group 40" transform="translate(9.198 41.038)">
      <path id="Path_65" data-name="Path 65" d="M42.13,201.079H57.977V185.6a8.047,8.047,0,0,0-8.107-4.238c-5.9.552-7.74,4.423-7.74,4.423Z" transform="translate(-42.13 -181.318)" fill="#973490"/>
      <path id="Path_66" data-name="Path 66" d="M42.13,288.45H57.977v15.478a8.047,8.047,0,0,1-8.107,4.238c-5.9-.552-7.74-4.423-7.74-4.423Z" transform="translate(-42.13 -263.719)" fill="#973490"/>
      <rect id="Rectangle_210" data-name="Rectangle 210" width="30.771" height="30.771" transform="translate(32.062 42.794)" fill="#973490"/>
      <path id="Path_67" data-name="Path 67" d="M213.6,390.424a8.853,8.853,0,1,1-8.85,8.852,8.853,8.853,0,0,1,8.85-8.852m0-1.374a10.226,10.226,0,1,0,10.226,10.226A10.226,10.226,0,0,0,213.6,389.05" transform="translate(-166.149 -341.097)" fill="#fff"/>
    </g>
  </g>
</svg>
