<svg xmlns="http://www.w3.org/2000/svg" xmlns:xlink="http://www.w3.org/1999/xlink" width="133" height="132" viewBox="0 0 133 132">
  <defs>
    <clipPath id="clip-path">
      <rect id="Rectangle_214" data-name="Rectangle 214" width="133" height="132" transform="translate(0 -0.383)" fill="none"/>
    </clipPath>
  </defs>
  <g id="_5" data-name="5" transform="translate(0 0.383)" clip-path="url(#clip-path)">
    <g id="Group_42" data-name="Group 42" transform="translate(0.659 8.626)">
      <path id="Path_68" data-name="Path 68" d="M163.66,61.084l27.952,32.5,31.746-27.3a21.767,21.767,0,0,0-5.607-24.105c-11.533-11.118-22.723-8.074-22.723-8.074Z" transform="translate(-120.906 -33.726)" fill="#973490"/>
      <path id="Path_69" data-name="Path 69" d="M35.4,169.61l27.955,32.5L31.6,229.414A21.764,21.764,0,0,1,8.6,220.261c-9.268-13.069-4.57-23.674-4.57-23.674Z" transform="translate(-2.842 -133.485)" fill="#973490"/>
      <path id="Path_70" data-name="Path 70" d="M294.015,187.973c15.05,0,27.3,10.7,27.3,23.842s-12.245,23.842-27.3,23.842-27.293-10.7-27.293-23.845,12.243-23.842,27.293-23.842m0-4.11c-17.344,0-31.405,12.514-31.405,27.952s14.061,27.955,31.405,27.955,31.406-12.514,31.406-27.955-14.056-27.949-31.406-27.949" transform="translate(-193.549 -143.946)" fill="#973490"/>
      <path id="Path_71" data-name="Path 71" d="M293.744,332.249c-11.238,0-21.032-6.662-27.471-12.524-5.065-4.623-5.213-28.066-5.213-30.725h4.113c0,11.663,1.555,25.57,3.876,27.681,6.381,5.8,16.268,12.474,27.218,11.323,8.374-.88,16.2-6.3,23.238-16.121,1.231-1.97.712-14.888.532-19.118-.069-1.685-.122-3.023-.122-3.765h4.11c0,.71.056,1.989.12,3.6.492,12.195.428,19.261-1.308,21.681-7.76,10.81-16.56,16.8-26.15,17.812a28.323,28.323,0,0,1-2.946.151" transform="translate(-192.411 -221.134)" fill="#973490"/>
      <rect id="Rectangle_212" data-name="Rectangle 212" width="5.921" height="24.007" transform="translate(96.356 54.057)" fill="#973490"/>
      <rect id="Rectangle_213" data-name="Rectangle 213" width="25.674" height="7.564" transform="translate(86.466 62.278)" fill="#973490"/>
    </g>
  </g>
</svg>
