<svg xmlns="http://www.w3.org/2000/svg" xmlns:xlink="http://www.w3.org/1999/xlink" width="133" height="132" viewBox="0 0 133 132">
  <defs>
    <clipPath id="clip-path">
      <rect id="Rectangle_216" data-name="Rectangle 216" width="133" height="132" transform="translate(0 -0.383)" fill="none"/>
    </clipPath>
  </defs>
  <g id="_7" data-name="7" transform="translate(0 0.383)" clip-path="url(#clip-path)">
    <g id="Group_44" data-name="Group 44" transform="translate(5.694 -0.526)">
      <path id="Path_73" data-name="Path 73" d="M80.65,4.343c23.991,0,41.59,13.957,48.043,19.958,1.741,1.619,3.547,3.137,5.3,4.607l.064.056a11.347,11.347,0,0,1,3.988,9.571,19.113,19.113,0,0,1-1.2,6.032l-.032.066-.043.114c-.141.375-14.09,37.674-18.1,45.251-4.836,9.167-2.544,18.926-2.443,19.338l.069.29.112.266c2.127,5.293,2.361,9.539.675,12.62-2.225,4.068-7.33,5.317-8.042,5.466a134.215,134.215,0,0,1-15.991.994A99.161,99.161,0,0,1,61.6,124.188a77.221,77.221,0,0,1-20.737-10.48c-10.395-7.463-14.976-15.042-15.117-15.295l-.165-.29-.226-.284a9.942,9.942,0,0,1-2.56-7.915c.853-6.809,8.467-13.66,11.333-15.717l.085-.061.082-.064A20.072,20.072,0,0,0,38.937,68.7l.173-.3.114-.33L58.953,12.7l.17-.479.051-.505C59.458,8.759,63.327,7,66.52,6.044a40.37,40.37,0,0,1,8.773-1.475h.2c1.715-.144,3.456-.215,5.168-.215M80.65.23c-1.8,0-3.64.072-5.509.229,0,0-19.083.659-20.069,10.858L35.343,66.683a16.105,16.105,0,0,1-3.61,4.179S10.3,86.194,22.193,100.471c0,0,18.764,32.626,70.864,32.626a137.626,137.626,0,0,0,16.645-1.045s18.751-3.289,10.528-23.685c0,0-2.079-8.555,2.084-16.451s18.312-45.727,18.312-45.727,5.413-12.535-3.908-20.373c-1.763-1.481-3.523-2.959-5.205-4.52C124.678,14.945,106.111.23,80.65.23" transform="translate(-18.599 -0.23)" fill="#973490" stroke="#973490" stroke-width="1"/>
      <path id="Path_74" data-name="Path 74" d="M185.978,71.823c1.125,0,2.273.021,3.408.064,10.546.4,20.333,2.547,27.553,6.083,6,2.924,9.5,6.524,9.387,9.624-.109,2.89-3.483,6.048-9.023,8.454-6.692,2.906-15.776,4.5-25.583,4.5-1.127,0-2.273-.021-3.408-.064-10.549-.4-20.333-2.555-27.564-6.08-6-2.924-9.5-6.527-9.387-9.627.109-2.887,3.48-6.048,9.023-8.454,6.7-2.9,15.784-4.5,25.594-4.5h0m0-4.113c-21.33,0-38.352,7.279-38.714,16.916-.383,10.166,17.929,19.11,40.9,19.971q1.8.066,3.562.066c21.332,0,38.355-7.279,38.716-16.916.378-10.166-17.932-19.107-40.9-19.96q-1.8-.066-3.565-.066" transform="translate(-113.053 -49.77)" fill="#973490" stroke="#973490" stroke-width="1"/>
    </g>
  </g>
</svg>
