<svg xmlns="http://www.w3.org/2000/svg" xmlns:xlink="http://www.w3.org/1999/xlink" width="133" height="132" viewBox="0 0 133 132">
  <defs>
    <clipPath id="clip-path">
      <rect id="Rectangle_160" data-name="Rectangle 160" width="133" height="132" transform="translate(0 -0.383)" fill="none"/>
    </clipPath>
  </defs>
  <g id="Group_41" data-name="Group 41" transform="translate(0 0.383)">
    <g id="Group_4" data-name="Group 4" transform="translate(0 0)" clip-path="url(#clip-path)">
      <g id="Group_3" data-name="Group 3" transform="translate(1.507 18.779)">
        <path id="Path_25" data-name="Path 25" d="M183.87,77.155l6.809,36.462s41.141,1.542,41.141-25.044-47.95-11.418-47.95-11.418" transform="translate(-134.988 -72.847)" fill="#973490"/>
        <path id="Path_26" data-name="Path 26" d="M43.779,95.561l6.242,37.959S2.353,153.159.086,121.1,43.779,95.561,43.779,95.561" transform="translate(-0.004 -89.121)" fill="#973490"/>
        <path id="Path_27" data-name="Path 27" d="M239.149,226.27l19.009,18.708s-21,41.141-43.978,22.983c0,0-24.4-33.732,24.969-41.691" transform="translate(-152.814 -185.482)" fill="#973490"/>
        <path id="Path_28" data-name="Path 28" d="M336.49,119.336l20.428,20.428,18.724-21.579s11.068-28.747-13.9-32.525c0,0-12.947.779-15.606,4.629,0,0,6.811,16.847-9.645,29.047" transform="translate(-247.034 -82.254)" fill="#973490"/>
        <path id="Path_29" data-name="Path 29" d="M53.67,257.1s20.428,13.9,43.409-4.254l-2.34-1.561S74.383,264.772,53.67,257.1" transform="translate(-39.403 -203.85)" fill="#973490"/>
        <path id="Path_30" data-name="Path 30" d="M291.265,200.59s1.425,9.223-35.468,46.036c0,0-19.859,24.047-39.155,3.334,0,0-2.552,11.634,16.749,13.62,0,0,12.583,3.959,35.066-25.083,3.9-5.038,8.111-9.837,12.376-14.564,5.918-6.575,13.277-16.6,10.44-23.342" transform="translate(-158.966 -166.629)" fill="#973490"/>
      </g>
    </g>
  </g>
</svg>
