<svg xmlns="http://www.w3.org/2000/svg" width="41.848" height="26.999" viewBox="0 0 41.848 26.999">
  <g id="russia" transform="translate(0 -90.839)">
    <g id="Group_34" data-name="Group 34" transform="translate(0 90.839)">
      <path id="Path_39" data-name="Path 39" d="M48.888,99.838v-7.65a1.35,1.35,0,0,0-1.35-1.35H8.39l-.723,1.35v7.65l1.4,1.8h37.8Z" transform="translate(-7.04 -90.839)" fill="#f2f2f6"/>
      <path id="Path_40" data-name="Path 40" d="M0,92.189v7.65l1.35,1.2v-10.2A1.35,1.35,0,0,0,0,92.189Z" transform="translate(0 -90.839)" fill="#e1e1e6"/>
      <path id="Path_41" data-name="Path 41" d="M7.817,290.832V297.9a1.35,1.35,0,0,0,1.35,1.35H47.676l1.35-.765v-7.65L47,289.032H9.2Z" transform="translate(-7.178 -272.833)" fill="#e5646e"/>
      <path id="Path_42" data-name="Path 42" d="M1.35,301.173v-4.8L0,297.573v7.65a1.35,1.35,0,0,0,1.35,1.35H40.5a1.35,1.35,0,0,0,1.35-1.35H5.4a4.05,4.05,0,0,1-4.05-4.05Z" transform="translate(0 -279.574)" fill="#db4655"/>
      <path id="Path_43" data-name="Path 43" d="M8.667,208.8l.642,1.149h40.5v-9H9.309l-.642,1.421Z" transform="translate(-7.959 -191.947)" fill="#5055a0"/>
      <path id="Path_44" data-name="Path 44" d="M0,200.946H1.35v9H0Z" transform="translate(0 -191.947)" fill="#3f3f8f"/>
    </g>
  </g>
</svg>
