<svg id="Layer_1" data-name="Layer 1" xmlns="http://www.w3.org/2000/svg" xmlns:xlink="http://www.w3.org/1999/xlink" viewBox="0 0 500 500"><defs><style>.cls-1{fill:none;}.cls-2{clip-path:url(#clip-path);}.cls-3{fill:#5daa62;}</style><clipPath id="clip-path"><rect class="cls-1" width="500" height="500"/></clipPath></defs><title>Artboard 1</title><g class="cls-2"><path class="cls-3" d="M136.57,167.9l211.51,192-39,42.94-211.5-192Zm-.95-19.53L78.06,211.79l232,210.55,57.57-63.43Z"/><rect class="cls-3" x="5.82" y="163.7" width="184.24" height="16.6" transform="translate(-95.25 128.93) rotate(-47.77)"/><rect class="cls-3" x="143.3" y="189.5" width="37.62" height="16.6" transform="translate(-93.31 184.91) rotate(-47.77)"/><rect class="cls-3" x="180.01" y="222.81" width="37.62" height="16.6" transform="translate(-105.94 223.02) rotate(-47.77)"/><rect class="cls-3" x="216.85" y="256.25" width="37.62" height="16.6" transform="translate(-118.62 261.27) rotate(-47.77)"/><rect class="cls-3" x="255.1" y="290.97" width="37.61" height="16.6" transform="translate(-131.78 300.98) rotate(-47.77)"/><rect class="cls-3" x="295.86" y="327.96" width="37.61" height="16.6" transform="translate(-145.81 343.29) rotate(-47.77)"/><rect class="cls-3" x="-11.05" y="106.02" width="104.86" height="16.6" transform="translate(-71.09 68.13) rotate(-47.77)"/><rect class="cls-3" x="49.69" y="109.68" width="41.77" height="64.4" transform="translate(-81.92 98.8) rotate(-47.77)"/><rect class="cls-3" x="382.55" y="363.88" width="21.41" height="141.69" transform="translate(-192.95 433.76) rotate(-47.77)"/><path class="cls-3" d="M458,56.49H352.83V23.57H458ZM471.78,9.74H339V70.32H471.78Z"/><polygon class="cls-3" points="314.67 197.8 314.67 267.03 407.34 344.19 407.34 369.92 473.2 369.92 500 336.26 500 197.8 314.67 197.8"/><path class="cls-3" d="M328.5,155.46l41.34-44.15,3.74-4V84.15h65.28v24.27l4.06,4,43.25,43.25V184H328.5Zm31.25-85.14v31.54L314.67,150V197.8H500V150l-47.3-47.3V70.32Z"/></g></svg>