<svg id="Layer_1" data-name="Layer 1" xmlns="http://www.w3.org/2000/svg" xmlns:xlink="http://www.w3.org/1999/xlink" viewBox="0 0 500 500"><defs><style>.cls-1{fill:none;}.cls-2{clip-path:url(#clip-path);}</style><clipPath id="clip-path"><rect class="cls-1" width="500" height="500"/></clipPath></defs><title>Artboard 8</title><g class="cls-2"><rect x="187.89" y="219.73" width="47.28" height="280.27"/><g class="cls-2"><path d="M.2,130.67v30.65a42.46,42.46,0,0,0,84.92,0V141.49H55.84v19.83a13.19,13.19,0,1,1-26.37,0V130.67a13.21,13.21,0,0,1,13.19-13.19H457.34a13.21,13.21,0,0,1,13.19,13.19v30.65a13.19,13.19,0,1,1-26.37,0V141.49H414.89v19.83a42.46,42.46,0,1,0,84.91,0V130.67a42.5,42.5,0,0,0-42.4-42.46H42.6A42.5,42.5,0,0,0,.2,130.67"/><polygon points="111.44 147.82 111.44 190.46 388.56 190.46 388.56 147.82 388.56 146.75 111.44 146.75 111.44 147.82"/><polygon points="499.8 29.67 499.8 0.4 0.2 0.4 0.2 29.67 44.58 29.67 44.58 58.94 455.43 58.94 455.43 29.67 499.8 29.67"/><rect x="340.99" y="219.73" width="47.57" height="280.27"/><rect x="264.44" y="219.73" width="47.28" height="280.27"/><rect x="111.44" y="219.73" width="47.17" height="280.27"/></g></g></svg>