<svg id="Layer_1" data-name="Layer 1" xmlns="http://www.w3.org/2000/svg" xmlns:xlink="http://www.w3.org/1999/xlink" viewBox="0 0 500 500"><defs><style>.cls-1{fill:none;}.cls-2{clip-path:url(#clip-path);}.cls-3{fill:#9d3035;}</style><clipPath id="clip-path"><rect class="cls-1" width="500" height="500"/></clipPath></defs><title>Artboard 2</title><g class="cls-2"><g class="cls-2"><path class="cls-3" d="M154.12,80.92a83.51,83.51,0,1,1-83.5,83.5,83.6,83.6,0,0,1,83.5-83.5m0-13a96.47,96.47,0,1,0,96.47,96.47A96.47,96.47,0,0,0,154.12,68"/><rect class="cls-3" x="311.97" y="43.06" width="49.01" height="31.9"/><rect class="cls-3" x="322.08" y="74.96" width="28.01" height="104.25"/><polygon class="cls-3" points="258.29 282.68 405.32 282.68 405.32 239.11 354.75 207.99 311.97 210.32 258.29 240.66 258.29 282.68"/><rect class="cls-3" y="302.9" width="25.67" height="92.58"/><rect class="cls-3" x="25.67" y="337.13" width="53.68" height="25.67"/><path class="cls-3" d="M464.48,315.87c10.37,4,17.21,10.22,20.35,18.46a29.4,29.4,0,0,1,1.82,12.83l-.39,2,.45,2.41c.51,2.71,2.05,11-9.51,21.77a66.44,66.44,0,0,1-12.78,9.17H92.32V315.87H464.48m2.3-13H79.35v92.58H467.56s37.34-17.11,31.9-46.29c0,0,5.44-33.06-32.68-46.29"/><rect class="cls-3" x="242.73" y="413.37" width="180.49" height="43.57"/></g></g></svg>