<svg id="Group_48" data-name="Group 48" xmlns="http://www.w3.org/2000/svg" width="132.929" height="110.032" viewBox="0 0 132.929 110.032">
  <path id="Path_78" data-name="Path 78" d="M40.987,6.629A25.636,25.636,0,0,0,15.341,32.254v.021A25.636,25.636,0,1,0,40.987,6.629Zm-.01,47.836a22.2,22.2,0,1,1,22.2-22.2A22.2,22.2,0,0,1,40.977,54.465Z" fill="#973490"/>
  <rect id="Rectangle_217" data-name="Rectangle 217" width="13.03" height="8.481" transform="translate(82.939)" fill="#973490"/>
  <rect id="Rectangle_218" data-name="Rectangle 218" width="7.447" height="27.715" transform="translate(85.627 8.481)" fill="#973490"/>
  <path id="Path_76" data-name="Path 76" d="M68.668,63.705h39.089V52.121L94.313,43.848l-11.373.619L68.669,52.533Z" fill="#973490"/>
  <rect id="Rectangle_219" data-name="Rectangle 219" width="6.825" height="24.613" transform="translate(0 69.08)" fill="#973490"/>
  <rect id="Rectangle_220" data-name="Rectangle 220" width="14.271" height="6.825" transform="translate(6.825 78.18)" fill="#973490"/>
  <path id="Path_77" data-name="Path 77" d="M123.485,72.528a8.728,8.728,0,0,1,5.41,4.908,7.822,7.822,0,0,1,.484,3.411l-.1.532.12.641c.136.72.545,2.924-2.528,5.788a17.686,17.686,0,0,1-3.4,2.438H24.546V72.528h98.941m.611-3.456H21.1V93.685H124.3s9.927-4.549,8.481-12.306c0,0,1.446-8.789-8.688-12.306" fill="#973490"/>
  <rect id="Rectangle_221" data-name="Rectangle 221" width="47.984" height="11.583" transform="translate(64.531 98.449)" fill="#973490"/>
</svg>
