<svg id="Layer_1" data-name="Layer 1" xmlns="http://www.w3.org/2000/svg" xmlns:xlink="http://www.w3.org/1999/xlink" viewBox="0 0 500 500"><defs><style>.cls-1{fill:none;}.cls-2{clip-path:url(#clip-path);}</style><clipPath id="clip-path"><rect class="cls-1" width="500" height="500"/></clipPath></defs><title>Artboard 9</title><g class="cls-2"><g class="cls-2"><path d="M80.1,187.28a51,51,0,1,0-51-51,51,51,0,0,0,51,51"/><path d="M250,119.32a59.46,59.46,0,1,0-59.46-59.46A59.46,59.46,0,0,0,250,119.32"/><path d="M419.89,187.28a51,51,0,1,0-51-51,51,51,0,0,0,51,51"/><path d="M106.88,212.76H54.62a42.54,42.54,0,0,0-42.47,42.48V365.67h17v-17h17V503H71.61V382.66h17V503h25.48V348.68h17v17h17V253.94a41.18,41.18,0,0,0-41.18-41.18"/><path d="M275.48,144.81h-51a59.53,59.53,0,0,0-59.47,59.46V331.69h17v-17h17V503H241.5V348.68h17V503H301V314.7h17v17h17V204.27a59.52,59.52,0,0,0-59.47-59.46"/><path d="M445.38,212.76H393.12a41.18,41.18,0,0,0-41.18,41.18v92.32h0v19.41h16.95v-17h17V503H411.4V382.66h17V503h25.48V348.68h17v17h17V255.24a42.54,42.54,0,0,0-42.47-42.48"/></g></g></svg>