<svg id="Layer_1" data-name="Layer 1" xmlns="http://www.w3.org/2000/svg" xmlns:xlink="http://www.w3.org/1999/xlink" viewBox="0 0 500 500"><defs><style>.cls-1,.cls-4{fill:none;}.cls-2{clip-path:url(#clip-path);}.cls-3{fill:#9d3035;}.cls-4{stroke:#9d3035;stroke-miterlimit:10;stroke-width:13.3px;}.cls-5{fill:#fff;}</style><clipPath id="clip-path"><rect class="cls-1" width="500" height="500"/></clipPath></defs><title>Artboard 3</title><g class="cls-2"><path class="cls-3" d="M215.74,46.12l37.66.13-1.07,114.64-37.67-.14Zm-8.94-5.59-1.18,125.74,55.64.2,1.18-125.74Z"/><polygon class="cls-3" points="294.47 39.35 174.8 38.93 174.86 32.26 294.53 32.69 294.47 39.35"/><polygon class="cls-3" points="262.21 65.27 237.78 65.18 237.84 58.52 262.27 58.61 262.21 65.27"/><polygon class="cls-3" points="262.02 85.16 237.59 85.08 237.65 78.42 262.08 78.5 262.02 85.16"/><polygon class="cls-3" points="261.84 105.14 237.4 105.05 237.47 98.39 261.9 98.47 261.84 105.14"/><polygon class="cls-3" points="261.64 125.86 237.21 125.78 237.27 119.12 261.7 119.2 261.64 125.86"/><polygon class="cls-3" points="261.43 147.96 237 147.87 237.06 141.21 261.5 141.3 261.43 147.96"/><polygon class="cls-3" points="204 0 203.94 6.66 272.05 6.91 272.11 0.24 204 0"/><polygon class="cls-3" points="250.81 32.54 223.67 32.44 223.92 6.59 251.05 6.69 250.81 32.54"/><polygon class="cls-3" points="242.41 222.91 228.5 222.86 229.04 165.99 242.94 166.04 242.41 222.91"/><rect class="cls-3" x="378.51" y="161.88" width="66.11" height="30.16"/><polygon class="cls-3" points="458.66 324.45 445.32 341.21 412.53 341.21 378.5 341.21 366.39 323.33 366.39 289.98 366.39 255.51 458.66 255.51 458.66 324.45"/><path class="cls-3" d="M428.22,198.93V211l2,2,21.54,21.54v14.06h-78.5v-14.2l20.58-22,1.86-2V198.93Zm6.89-6.88H388.83v15.7l-22.44,24v23.81h92.27V231.71l-23.55-23.55Z"/><line class="cls-4" x1="41.34" y1="88.92" x2="433.26" y2="444.12"/><line class="cls-4" x1="57.3" y1="463.28" x2="413.3" y2="70.56"/><g class="cls-2"><path class="cls-3" d="M42.13,266.92h68.65V199.87s-9.58-20.75-35.12-18.36-33.53,19.16-33.53,19.16Z"/><path class="cls-3" d="M42.13,288.45h68.65V355.5s-9.58,20.75-35.12,18.36S42.13,354.7,42.13,354.7Z"/><rect class="cls-3" x="181.02" y="366.7" width="133.3" height="133.3"/><path class="cls-5" d="M247.67,395a38.35,38.35,0,1,1-38.34,38.35A38.39,38.39,0,0,1,247.67,395m0-5.95a44.3,44.3,0,1,0,44.3,44.3,44.3,44.3,0,0,0-44.3-44.3"/></g></g></svg>