<svg id="Layer_1" data-name="Layer 1" xmlns="http://www.w3.org/2000/svg" xmlns:xlink="http://www.w3.org/1999/xlink" viewBox="0 0 500 500"><defs><style>.cls-1{fill:none;}.cls-2{clip-path:url(#clip-path);}</style><clipPath id="clip-path"><rect class="cls-1" width="500" height="500"/></clipPath></defs><title>Artboard 10</title><g class="cls-2"><rect x="330.36" y="348.21" width="89.29" height="62.5"/><g class="cls-2"><path d="M8.93,258.93v8.93a26.79,26.79,0,0,0,53.57,0v-8.93ZM83.75,187.5,23.48,241.07h43L100,187.5Zm-3.39,71.43v8.93a26.79,26.79,0,0,0,53.57,0v-8.93ZM121,187.5,87.53,241.07H135l6.69-53.57Zm38.65,0L153,241.07h52.39V187.5Zm-7.88,71.43v8.93a26.79,26.79,0,0,0,53.57,0v-8.93ZM223.21,0a8.92,8.92,0,0,0-8.92,8.93V26.79h17.85V8.93A8.93,8.93,0,0,0,223.21,0m35.72,0A8.93,8.93,0,0,0,250,8.93V26.79h17.86V8.93A9,9,0,0,0,258.93,0m9.64,44.64H250V62.5H232.14V44.64H214.29V62.5H196.43V44.64H177.86l-7.45,89.29H276ZM223.21,241.07h53.58V187.5H223.21Zm0,17.86v8.93a26.79,26.79,0,0,0,53.58,0v-8.93Zm0,205.36h53.58V348.21H223.21ZM322.14,44.64H286.48l7.45,89.29h35.65ZM340.32,187.5H294.64v53.57H347Zm-45.68,71.43v8.93a26.79,26.79,0,0,0,53.57,0v-8.93ZM401.79,98.21H344.52l3.66,43.9c0,.24,0,.5,0,.75a8.93,8.93,0,0,1-8.92,8.93H160.71c-.25,0-.5,0-.74,0a8.94,8.94,0,0,1-8.16-9.64l3.66-43.9H98.21a8.92,8.92,0,0,0-8.92,8.93v62.5H410.71v-62.5a8.94,8.94,0,0,0-8.92-8.93M379,187.5H358.33L365,241.07h47.44Zm-12.9,71.43v8.93a26.79,26.79,0,0,0,53.57,0v-8.93Zm62.5,35.68a44.6,44.6,0,0,1-71.43,0,44.58,44.58,0,0,1-71.43,0,44.57,44.57,0,0,1-71.42,0,45.25,45.25,0,0,1-9,9,44.6,44.6,0,0,1-62.42-9,44.6,44.6,0,0,1-71.43,0,44.69,44.69,0,0,1-26.79,17V464.29H205.36v-125a8.92,8.92,0,0,1,8.93-8.93h71.42a8.93,8.93,0,0,1,8.93,8.93v125H455.36V311.6a44.69,44.69,0,0,1-26.79-17m-241.07,125a8.93,8.93,0,0,1-8.93,8.93H71.8a8.92,8.92,0,0,1-8.93-8.93V339.29a8.92,8.92,0,0,1,8.93-8.93H178.57a8.93,8.93,0,0,1,8.93,8.93Zm250,0a8.93,8.93,0,0,1-8.93,8.93H321.43a8.93,8.93,0,0,1-8.93-8.93V339.29a8.93,8.93,0,0,1,8.93-8.93H428.57a8.93,8.93,0,0,1,8.93,8.93ZM80.73,410.71h88.91v-62.5H80.73ZM416.24,187.5H400l33.49,53.57h43Zm21.26,71.43v8.93a26.79,26.79,0,0,0,53.57,0v-8.93Zm53.57,223.21H8.93a8.93,8.93,0,1,0,0,17.86H491.07a8.93,8.93,0,0,0,0-17.86"/></g></g></svg>