<svg id="Layer_1" data-name="Layer 1" xmlns="http://www.w3.org/2000/svg" xmlns:xlink="http://www.w3.org/1999/xlink" viewBox="0 0 500 500"><defs><style>.cls-1{fill:none;}.cls-2{clip-path:url(#clip-path);}.cls-3{fill:#6384a7;}.cls-4{clip-path:url(#clip-path-3);}</style><clipPath id="clip-path"><rect class="cls-1" width="500" height="500"/></clipPath><clipPath id="clip-path-3"><rect class="cls-1" x="520" width="500" height="500"/></clipPath></defs><title>Artboard 4</title><g class="cls-2"><g class="cls-2"><path class="cls-3" d="M183.87,89.05,209.48,226.2S364.23,232,364.23,132,183.87,89.05,183.87,89.05"/><path class="cls-3" d="M164.66,97.07l23.48,142.78S8.84,313.72.31,193.12,164.66,97.07,164.66,97.07"/><path class="cls-3" d="M324.75,226.27l71.5,70.37s-79,154.75-165.42,86.45c0,0-91.78-126.88,93.92-156.82"/><path class="cls-3" d="M336.49,212.33l76.84,76.84L483.76,208S525.39,99.87,431.47,85.66c0,0-48.7,2.93-58.7,17.41,0,0,25.62,63.37-36.28,109.26"/><path class="cls-3" d="M53.67,273.16s76.84,52.3,163.28-16l-8.8-5.87S131.58,302,53.67,273.16"/><path class="cls-3" d="M497.64,200.59S503,235.28,364.23,373.75c0,0-74.7,90.45-147.28,12.54,0,0-9.6,43.76,63,51.23,0,0,47.33,14.89,131.9-94.35,14.67-18.95,30.51-37,46.55-54.78,22.26-24.73,49.94-62.45,39.27-87.8"/></g></g><g class="cls-4"><g class="cls-4"><path class="cls-3" d="M342.41,212.33l76.84,76.84L489.68,208S531.31,99.87,437.39,85.66c0,0-48.7,2.93-58.7,17.41,0,0,25.62,63.37-36.28,109.26"/></g></g></svg>