<svg id="Layer_1" data-name="Layer 1" xmlns="http://www.w3.org/2000/svg" xmlns:xlink="http://www.w3.org/1999/xlink" viewBox="0 0 500 500"><defs><style>.cls-1{fill:none;}.cls-2{clip-path:url(#clip-path);}.cls-3{fill:#e0d873;}</style><clipPath id="clip-path"><rect class="cls-1" width="500" height="500"/></clipPath></defs><title>Artboard 5</title><g class="cls-2"><g class="cls-2"><path class="cls-3" d="M163.66,136.63,268.8,258.89,388.21,156.2s22.29-48.85-21.09-90.67-85.47-30.37-85.47-30.37Z"/><path class="cls-3" d="M125.31,169.61,230.46,291.86,111,394.56s-51.63,14.73-86.49-34.43S7.32,271.08,7.32,271.08Z"/><path class="cls-3" d="M380.74,199.33c56.61,0,102.67,40.23,102.67,89.68s-46.06,89.68-102.67,89.68S278.08,338.46,278.08,289s46.05-89.68,102.66-89.68m0-15.46c-65.24,0-118.13,47.07-118.13,105.14S315.5,394.15,380.74,394.15,498.87,347.08,498.87,289,446,183.87,380.74,183.87"/><path class="cls-3" d="M384,451.68c-42.27,0-79.11-25.06-103.33-47.11C261.62,387.18,261.06,299,261.06,289h15.47c0,43.87,5.85,96.18,14.58,104.12,24,21.83,61.19,46.92,102.38,42.59,31.5-3.31,60.92-23.71,87.41-60.64,4.63-7.41,2.68-56,2-71.91-.26-6.34-.46-11.37-.46-14.16h15.46c0,2.67.21,7.48.45,13.54,1.85,45.87,1.61,72.45-4.92,81.55-29.19,40.66-62.29,63.2-98.36,67a106.54,106.54,0,0,1-11.08.57"/><rect class="cls-3" x="365.28" y="237.06" width="22.27" height="90.3"/><rect class="cls-3" x="328.08" y="267.98" width="96.57" height="28.45"/></g></g></svg>