<svg id="Layer_1" data-name="Layer 1" xmlns="http://www.w3.org/2000/svg" xmlns:xlink="http://www.w3.org/1999/xlink" viewBox="0 0 500 500"><defs><style>.cls-1{fill:none;}.cls-2{clip-path:url(#clip-path);}.cls-3{fill:#307d9b;}</style><clipPath id="clip-path"><rect class="cls-1" width="500" height="500"/></clipPath></defs><title>Artboard 7</title><g class="cls-2"><g class="cls-2"><path class="cls-3" d="M252,15.7c90.24,0,156.44,52.5,180.71,75.07,6.55,6.09,13.34,11.8,19.92,17.33l.24.21c10.46,8.79,15.52,20.9,15,36A71.89,71.89,0,0,1,463.35,167l-.12.25-.16.43c-.53,1.41-53,141.71-68.07,170.21-18.19,34.48-9.57,71.19-9.19,72.74l.26,1.09.42,1c8,19.91,8.88,35.88,2.54,47.47-8.37,15.3-27.57,20-30.25,20.56a504.85,504.85,0,0,1-60.15,3.74c-42.59,0-82.39-6-118.3-18a290.47,290.47,0,0,1-78-39.42C63.23,399,46,370.49,45.47,369.54l-.62-1.09L44,367.38c-7.83-9.4-11-19.14-9.63-29.77C37.58,312,66.22,286.23,77,278.49l.32-.23.31-.24a75.5,75.5,0,0,0,17.47-20.26l.65-1.14.43-1.24L170.39,47.12l.64-1.8.19-1.9c1.07-11.11,15.62-17.72,27.63-21.32a151.85,151.85,0,0,1,33-5.55h.38l.37,0c6.45-.54,13-.81,19.44-.81M252,.23c-6.78,0-13.69.27-20.72.86,0,0-71.78,2.48-75.49,40.84L81.58,250.19A60.58,60.58,0,0,1,68,265.91s-80.62,57.67-35.88,111.37c0,0,70.58,122.72,266.55,122.72a517.67,517.67,0,0,0,62.61-3.93s70.53-12.37,39.6-89.09c0,0-7.82-32.18,7.84-61.88s68.88-172,68.88-172,20.36-47.15-14.7-76.63c-6.63-5.57-13.25-11.13-19.58-17C417.61,55.58,347.77.23,252,.23"/><path class="cls-3" d="M292.9,83.18c4.23,0,8.55.08,12.82.24C345.39,84.91,382.2,93,409.36,106.3c22.55,11,35.75,24.54,35.31,36.2-.41,10.87-13.1,22.75-33.94,31.8-25.17,10.93-59.34,16.94-96.23,16.94-4.24,0-8.55-.08-12.82-.24C262,189.51,225.2,181.39,198,168.13c-22.55-11-35.75-24.55-35.31-36.21.41-10.86,13.09-22.75,33.94-31.8C221.83,89.2,256,83.18,292.9,83.18h0m0-15.47c-80.23,0-144.26,27.38-145.62,63.63-1.44,38.24,67.44,71.88,153.83,75.12q6.76.25,13.4.25c80.24,0,144.27-27.38,145.63-63.63C461.56,104.84,392.69,71.21,306.3,68q-6.76-.25-13.41-.25"/></g></g></svg>